# xmcd
#
# Track frame offsets:
#	150
#	10669
#	23009
#	36320
#	50703
#	61597
#	71505
#	84040
#	95923
#	107984
#	118889
#	131219
#	142865
#	156605
#	173890
#	188291
#	200452
#	214210
#	233493
#	251606
#	265918
#	278218
#	288869
#	301301
#	314485
#	327728
#	342495
#
# Disc length: 4737 seconds
#
# Revision: 0
# Processed by: cddbd v1.5.1PL2 Copyright (c) Steve Scherf et al.
# Submitted via: dBpowerAMP V4.0
#
DISCID=91127f1b
DTITLE=Otis Redding - Greateast hits
DYEAR=1900
DGENRE=Blues
TTITLE0=The dock of the bay
TTITLE1=Chain gang
TTITLE2=Change is gonna come
TTITLE3=Cigarrettes and coffee
TTITLE4=Cupid
TTITLE5=Fa-fa-fa-fa-fa
TTITLE6=Hard to handle
TTITLE7=I can't turn you loose
TTITLE8=I love you more than words can say
TTITLE9=I've been loving you too long
TTITLE10=I've got dreams to remember
TTITLE11=Knock on wood
TTITLE12=Love man
TTITLE13=Mr Pitiful
TTITLE14=My girl
TTITLE15=My lovers player
TTITLE16=Pain in my heart
TTITLE17=Respect
TTITLE18=Satisfaction
TTITLE19=Security
TTITLE20=Shake
TTITLE21=That's how strong my love is
TTITLE22=The happy song
TTITLE23=These arms of mine
TTITLE24=Tramp
TTITLE25=Try a little tendeness
TTITLE26=Wonderful world
EXTD=
EXTT0=
EXTT1=
EXTT2=
EXTT3=
EXTT4=
EXTT5=
EXTT6=
EXTT7=
EXTT8=
EXTT9=
EXTT10=
EXTT11=
EXTT12=
EXTT13=
EXTT14=
EXTT15=
EXTT16=
EXTT17=
EXTT18=
EXTT19=
EXTT20=
EXTT21=
EXTT22=
EXTT23=
EXTT24=
EXTT25=
EXTT26=
PLAYORDER=
